HIERARCHY
ROOT Hips
{
  OFFSET 74.0196 97.4445 -31.1285
  CHANNELS 6 Xposition Yposition Zposition Zrotation Xrotation Yrotation
  JOINT RightUpLeg
  {
    OFFSET -8.9458 -8.66707 0.101652
    CHANNELS 3 Zrotation Xrotation Yrotation
    JOINT RightLeg
    {
      OFFSET -2.94875e-013 -44.4227 1.3727
      CHANNELS 3 Zrotation Xrotation Yrotation
      JOINT RightFoot
      {
        OFFSET 0.253549 -42.0924 -1.46059
        CHANNELS 3 Zrotation Xrotation Yrotation
        JOINT RightToes
        {
          OFFSET 0.04 -4.41509 8.4991
          CHANNELS 3 Zrotation Xrotation Yrotation
          End Site
          {
            OFFSET -0.08 -0.137448 9.77979
          }
        }
      }
    }
  }
  JOINT Spine
  {
    OFFSET -5.68434e-014 11.8905 -6.39488e-014
    CHANNELS 3 Zrotation Xrotation Yrotation
    JOINT Spine1
    {
      OFFSET 5.68434e-014 25.6574 0.127663
      CHANNELS 3 Zrotation Xrotation Yrotation
      JOINT HEad
      {
        OFFSET 4.26326e-014 8.73416 0.011341
        CHANNELS 3 Zrotation Xrotation Yrotation
        End Site
        {
          OFFSET -0.29 12.7742 2.51395
        }
      }
      JOINT LeftShoulder1
      {
        OFFSET 8.99 -0.362252 -0.22
        CHANNELS 3 Zrotation Xrotation Yrotation
        JOINT LeftArm
        {
          OFFSET 10.2827 -0.00338 0.322123
          CHANNELS 3 Zrotation Xrotation Yrotation
          JOINT LeftForeArm
          {
            OFFSET 32.7669 0.099144 -1.42434
            CHANNELS 3 Zrotation Xrotation Yrotation
            JOINT LeftHand
            {
              OFFSET 27.5643 0.085362 1.02216
              CHANNELS 3 Zrotation Xrotation Yrotation
              End Site
              {
                OFFSET 16.7443 -0.6 1.50291
              }
            }
          }
        }
      }
      JOINT RightShoulder
      {
        OFFSET -8.99 -0.362252 -0.22
        CHANNELS 3 Zrotation Xrotation Yrotation
        JOINT RightArm
        {
          OFFSET -10.2827 -0.00338 0.322123
          CHANNELS 3 Zrotation Xrotation Yrotation
          JOINT RightForeArm
          {
            OFFSET -32.8971 0.099144 -1.42434
            CHANNELS 3 Zrotation Xrotation Yrotation
            JOINT RightHand
            {
              OFFSET -27.4921 0.085362 1.02216
              CHANNELS 3 Zrotation Xrotation Yrotation
              End Site
              {
                OFFSET -16.6312 -0.6 1.50291
              }
            }
          }
        }
      }
    }
  }
  JOINT LeftUpLeg
  {
    OFFSET 8.9458 -8.66707 0.101652
    CHANNELS 3 Zrotation Xrotation Yrotation
    JOINT LeftLeg
    {
      OFFSET 7.10543e-014 -44.4227 1.3727
      CHANNELS 3 Zrotation Xrotation Yrotation
      JOINT LeftFoot
      {
        OFFSET -0.253549 -42.0924 -1.46059
        CHANNELS 3 Zrotation Xrotation Yrotation
        JOINT LeftToes
        {
          OFFSET -0.04 -4.41509 8.4991
          CHANNELS 3 Zrotation Xrotation Yrotation
          End Site
          {
            OFFSET 0.08 -0.047448 9.77979
          }
        }
      }
    }
  }
}
MOTION
Frames:	9
Frame Time:	0.0166667
-11.4237 92.815 -63.7899 2.84446 0.769616 74.6504 -20.3611 -23.4576 -0.495961 10.761 48.8612 -5.96863 8.45773 11.5983 -1.46351 -14.9277 -48.6477 -2.03871 0.614784 6.60739 -3.00091 -3.86272 13.0286 -5.24348 12.9889 -19.0132 -12.8201 -5.03302e-021 -3.88251e-019 1.21329e-020 -73.893 11.5976 -42.7142 -11.4965 39.181 -115.183 6.54677 9.62745 -1.04006 29.1535 -5.35074 -19.5444 55.3183 -14.4217 17.7023 -14.9883 26.4697 135.566 0.485733 9.71254 -22.1428 13.4291 1.82745 -7.69572 -13.4086 24.7537 12.2093 -2.00994 19.3776 0.340225 51.9907 -56.3782 36.2448 
-11.6291 93.4288 -63.755 2.2661 0.631945 74.9533 -21.3695 -24.7421 -0.684169 13.0385 48.9486 -6.25951 9.91939 13.7357 -1.87958 -13.3327 -46.9613 -0.350058 0.701315 6.70294 -3.16242 -3.58399 13.2083 -5.63688 12.9238 -20.0466 -12.6734 -5.03302e-021 -3.88251e-019 1.21329e-020 -74.5077 12.0112 -42.7416 -11.314 39.3679 -115.993 6.54677 9.62745 -1.04006 29.1626 -5.34585 -19.5238 55.3921 -15.0643 16.9857 -13.1059 27.9919 135.016 -2.07697 10.0747 -19.2923 13.6661 1.45058 -7.48239 -13.0113 24.0664 11.0976 -2.37847 17.6431 0.401313 46.8865 -54.244 32.1004 
-11.7641 94.2778 -63.5282 1.50036 0.477355 75.3815 -22.2704 -25.9961 -1.20372 14.8549 48.7392 -6.23681 11.3036 15.4844 -2.29934 -11.7196 -44.2578 1.02366 0.877725 6.66411 -3.37658 -3.1722 13.1154 -6.14822 12.8701 -20.5974 -12.4667 -5.03302e-021 -3.88251e-019 1.21329e-020 -74.984 12.3851 -41.9953 -11.1616 39.4948 -116.74 6.54677 9.62745 -1.04006 29.1626 -5.42819 -19.7861 55.4368 -15.4005 16.6132 -11.5879 28.7205 135.366 -3.78836 10.2254 -16.6383 14.239 0.866224 -7.2119 -12.7448 23.3212 9.48637 -3.47487 15.7035 0.59545 40.7717 -51.2187 27.1207 
-11.8457 95.28 -63.146 0.651031 0.287533 75.923 -22.9249 -26.9806 -1.8663 15.9887 48.0844 -6.04958 12.0959 16.2427 -2.53504 -10.3647 -40.6757 1.7014 1.1408 6.50239 -3.611 -2.69821 12.7729 -6.69657 12.7757 -20.5703 -12.3196 -5.03302e-021 -3.88251e-019 1.21329e-020 -75.2318 12.7133 -40.7886 -11.0484 39.5051 -117.322 6.54677 9.62745 -1.04006 29.2034 -5.61093 -20.3442 55.4657 -15.6405 16.7148 -10.7872 28.5879 136.889 -4.46172 10.237 -14.7886 15.0831 0.111165 -6.99867 -12.6554 22.5943 7.88488 -5.05318 13.8959 0.8476 34.5229 -47.3173 22.1819 
-11.8974 96.3399 -62.6662 -0.177159 0.0529222 76.5437 -23.2829 -27.5508 -2.39551 16.4536 46.8575 -5.86582 12.0678 15.7494 -2.48047 -9.21451 -36.2866 1.7298 1.47122 6.23984 -3.83017 -2.22486 12.2262 -7.20327 12.6002 -19.9342 -12.3455 -5.03302e-021 -3.88251e-019 1.21329e-020 -75.2325 12.9849 -39.4198 -10.9948 39.4128 -117.688 6.54677 9.62745 -1.04006 29.2956 -5.8732 -21.1216 55.4978 -15.9664 17.3564 -10.7424 27.6215 139.478 -4.2468 10.1959 -14.0732 16.0904 -0.782341 -6.9131 -12.7578 21.982 6.72514 -6.8063 12.5942 1.10749 28.9148 -42.8385 18.0369 
-11.9384 97.3587 -62.1438 -0.899757 -0.208678 77.193 -23.3916 -27.6533 -2.54969 16.3955 44.978 -5.77806 11.4018 14.0776 -2.18881 -8.03915 -30.9064 1.3274 1.81621 5.90032 -4.00627 -1.80173 11.5275 -7.61331 12.3344 -18.7381 -12.6073 -5.03302e-021 -3.88251e-019 1.21329e-020 -75.036 13.1736 -38.1143 -11.0178 39.2863 -117.845 6.54677 9.62745 -1.04006 29.4097 -6.16526 -21.9733 55.571 -16.4961 18.5567 -11.2081 25.9319 142.703 -3.47285 10.1406 -14.4828 17.1282 -1.79104 -6.93477 -13.0363 21.6076 6.21221 -8.4287 12.0678 1.35867 24.4677 -38.4117 15.0923 
-11.9776 98.2439 -61.6145 -1.4672 -0.456716 77.8198 -23.3609 -27.3044 -2.20749 15.9656 42.4429 -5.7736 10.581 11.5925 -1.82042 -6.63085 -24.3974 0.710522 2.09961 5.50732 -4.12688 -1.45689 10.7303 -7.90338 11.9876 -17.1083 -13.1038 -5.03302e-021 -3.88251e-019 1.21329e-020 -74.7373 13.2334 -37.0205 -11.1193 39.2102 -117.844 6.54677 9.62745 -1.04006 29.4863 -6.41964 -22.723 55.741 -17.2887 20.3157 -11.8409 23.7347 146.002 -2.53612 10.0776 -15.7015 18.0709 -2.89741 -6.96384 -13.4501 21.6059 6.3256 -9.66937 12.3784 1.59662 21.4375 -34.8494 13.3524 
-12.0137 98.9171 -61.0905 -1.86528 -0.649869 78.383 -23.3087 -26.5697 -1.38715 15.2655 39.349 -5.7829 10.1176 8.83019 -1.51799 -4.93727 -17.0252 0.025461 2.25416 5.08788 -4.19495 -1.19189 9.89387 -8.0755 11.567 -15.2277 -13.7834 -5.03302e-021 -3.88251e-019 1.21329e-020 -74.4405 13.1033 -36.2437 -11.2879 39.2534 -117.752 6.54677 9.62745 -1.04006 29.4519 -6.56566 -23.2014 56.0812 -18.4018 22.6365 -12.407 21.324 148.888 -1.80821 10.0207 -17.253 18.8364 -4.07645 -6.88166 -13.951 22.0811 6.92614 -10.3764 13.3656 1.80354 19.8533 -32.8086 12.5315 
-12.0403 99.3199 -60.5669 -2.10259 -0.768518 78.8516 -23.3132 -25.5486 -0.21705 14.3674 35.9084 -5.7478 10.3136 6.27935 -1.33484 -3.07392 -9.45143 -0.668439 2.25648 4.67716 -4.22093 -0.985371 9.08958 -8.14246 11.0725 -13.301 -14.5687 -5.03302e-021 -3.88251e-019 1.21329e-020 -74.2253 12.7212 -35.8827 -11.5096 39.4537 -117.615 6.54677 9.62745 -1.04006 29.2335 -6.54454 -23.2767 56.6977 -19.9565 25.5382 -12.8717 18.9817 151.073 -1.52394 9.99907 -18.7074 19.4119 -5.27825 -6.62163 -14.5136 23.0577 7.87057 -10.5139 14.7104 1.94366 19.5345 -32.4546 12.2789 
